<?xml version="1.0" encoding="UTF-8" standalone="no"?><!-- Generator: Gravit.io --><svg xmlns="http://www.w3.org/2000/svg" xmlns:xlink="http://www.w3.org/1999/xlink" style="isolation:isolate" viewBox="0 0 3000 2000" width="3000pt" height="2000pt"><defs><clipPath id="_clipPath_8OYU3NJzpNyit51mrzmYkScDeOvL9tIV"><rect width="3000" height="2000"/></clipPath></defs><g clip-path="url(#_clipPath_8OYU3NJzpNyit51mrzmYkScDeOvL9tIV)"><clipPath id="_clipPath_8hMvNhk0taZdsdJhfTqPsA146YVP0GIN"><path d=" M 0 0 L 0 2000 L 3000 2000 L 3000 0 L 0 0 Z " fill="rgb(255,255,255)"/></clipPath><g clip-path="url(#_clipPath_8hMvNhk0taZdsdJhfTqPsA146YVP0GIN)"><path d=" M 3000 2000 L 0 2000 L 0 0 L 3000 0 L 3000 2000 Z " fill="rgb(255,255,255)"/><path d=" M 743.625 179.792 C 681.628 258.424 739.834 464.765 868.089 490.951 C 995.953 517.058 1130.35 351.225 1104.57 254.47 C 1074.41 141.306 815.929 88.088 743.625 179.792 Z " fill="rgb(188,163,127)"/><path d=" M 1407.05 150.147 C 1334.4 208.606 1347.02 367.494 1437.54 442.838 C 1523.06 514.023 1673.35 506.667 1721.08 427.594 C 1761.91 359.952 1714.19 262.203 1666.2 211.124 C 1600.3 140.972 1474.64 95.756 1407.05 150.147 Z " fill="rgb(188,163,127)"/><path d=" M 112.585 271.198 C 72.928 465.486 397.346 663.505 491.072 607.038 C 591.389 546.599 534.083 130.356 363.133 89.951 C 267.054 67.242 134.64 163.148 112.585 271.198 Z " fill="rgb(188,163,127)"/><path d=" M 2950.95 172.163 C 2941.88 157.635 2918.04 157.562 2870.75 158.009 C 2771.3 158.95 2630.93 160.278 2587.67 252.369 C 2553.27 325.588 2586.82 442.227 2649 464.679 C 2763.33 505.963 2989.78 234.337 2950.95 172.163 Z " fill="rgb(188,163,127)"/><path d=" M 302.022 695.697 C 275.754 701.211 275.75 721.834 228.398 766.121 C 134.91 853.557 58.128 844.995 52.34 884.56 C 45.08 934.185 157.85 1002.45 263.61 1022.21 C 324.961 1033.66 469.622 1044.8 506.891 974.19 C 557.051 879.162 391.072 677.007 302.022 695.697 Z " fill="rgb(188,163,127)"/><path d=" M 669.106 717.35 C 623.86 796.644 632.703 907.965 663.013 918.426 C 684.23 925.748 699.435 877.942 747.712 852.876 C 872.864 787.896 1035.13 971.866 1099.54 925.777 C 1152.95 887.556 1141.18 689.597 1010.79 611.986 C 885.858 537.625 725.945 617.738 669.106 717.35 Z " fill="rgb(188,163,127)"/><path d=" M 1657.98 981.458 C 1649.13 966.436 1582.3 856.699 1494.01 869.463 C 1398.36 883.291 1340.74 1031.71 1376.97 1085.28 C 1401.79 1121.96 1459.35 1097.49 1483.08 1133.77 C 1523.6 1195.7 1389.01 1317.57 1420.96 1361.09 C 1444.68 1393.39 1553.88 1373.99 1620.96 1311.57 C 1708.72 1229.89 1716.91 1081.47 1657.98 981.458 Z " fill="rgb(188,163,127)"/><path d=" M 1917.77 631.204 C 1879.61 667.832 1878.04 744.18 1908.73 793.885 C 1962.57 881.089 2111.16 878.97 2160.17 823.983 C 2174.45 807.965 2181.27 786.354 2190.37 757.495 C 2206.8 705.371 2198 688.724 2207.39 656.183 C 2230.48 576.221 2314.91 568.473 2311.53 526.423 C 2308.45 488.172 2234.61 445.194 2179.48 460.761 C 2117.52 478.256 2129.12 555.585 2052.31 596.13 C 1991.88 628.028 1954.13 596.304 1917.77 631.204 Z " fill="rgb(188,163,127)"/><path d=" M 56.289 1263.56 C 28.13 1280.32 28.633 1368.5 76.028 1419.51 C 118.231 1464.93 193.812 1476.79 243.813 1451.09 C 303.02 1420.66 297.178 1352.58 350.407 1340.55 C 385.121 1332.7 394.759 1360.04 449.104 1364.24 C 459.894 1365.07 549.178 1371.95 591.228 1308.96 C 623.935 1259.97 617.819 1184.07 579.385 1151.05 C 540.178 1117.37 499.209 1155.7 368.172 1151.05 C 258.93 1147.18 223.902 1118.29 188.543 1147.1 C 145.222 1182.41 161.513 1255.34 119.455 1269.49 C 92.653 1278.5 74.391 1252.79 56.289 1263.56 Z " fill="rgb(188,163,127)"/><path d=" M 1267.68 832.167 C 1327.55 860.272 1374.99 771.594 1498.38 752.655 C 1600.65 736.959 1659.94 783.768 1680.1 754.888 C 1701.11 724.804 1662.24 637.532 1596.51 601.652 C 1523.24 561.664 1458.81 608.546 1375.54 553.678 C 1352.83 538.712 1344.34 526.47 1325.91 527.415 C 1276.66 529.938 1244.86 622.077 1229.52 666.534 C 1208.89 726.304 1214.3 751.834 1216.25 759.721 C 1217.82 766.058 1230.54 814.73 1267.68 832.167 Z " fill="rgb(188,163,127)"/><path d=" M 744.373 1114.87 C 712.649 1149.67 740.274 1224.04 749.369 1248.52 C 756.39 1267.42 774.138 1313.4 819.316 1347.19 C 879.218 1392 912.819 1359.63 980.443 1403.4 C 1034.04 1438.1 1039.4 1475.56 1081.62 1478.42 C 1109.69 1480.32 1143.13 1466.18 1152.81 1442.12 C 1169.85 1399.8 1107.52 1341.28 1097.85 1332.21 C 1053.42 1290.49 1020.34 1292.73 1014.17 1264.76 C 1007.64 1235.2 1036.3 1195.15 1070.38 1183.57 C 1108.36 1170.66 1127.66 1201.75 1174.05 1193.56 C 1212.52 1186.77 1254.24 1155.67 1255.23 1124.86 C 1256.61 1082 1179.34 1033.02 1107.85 1033.68 C 1033.89 1034.37 1024.87 1087.63 934.229 1107.38 C 833.929 1129.23 777.277 1078.78 744.373 1114.87 Z " fill="rgb(188,163,127)"/><path d=" M 1864.7 1302.99 C 1883.24 1377.33 1986.09 1430.29 2041.96 1404.84 C 2109.42 1374.1 2068.46 1247.2 2153.43 1194.54 C 2207.5 1161.04 2258.69 1190.98 2283.17 1154.33 C 2308.95 1115.73 2274.35 1049.3 2251.47 1018.28 C 2214.68 968.404 2139.4 916.845 2084.01 938.261 C 2021.3 962.512 2027.92 1063.39 1972.57 1071.27 C 1936.31 1076.44 1911.82 1036.24 1873.57 1050.53 C 1855.08 1057.43 1838.83 1075.03 1842.03 1085.26 C 1847.23 1101.88 1898.76 1082.74 1948.73 1112.11 C 1974.85 1127.46 2002.26 1157.07 1995.77 1174.99 C 1986.43 1200.77 1916.63 1175.56 1880.34 1215.5 C 1851.53 1247.2 1863.52 1298.25 1864.7 1302.99 Z " fill="rgb(188,163,127)"/><path d=" M 154.872 1812.62 C 190.187 1872.94 291.777 1881.37 357.085 1854.81 C 418.191 1829.96 420.365 1785.51 478.396 1775.7 C 539.379 1765.38 576.692 1807.74 600.034 1787.78 C 622.491 1768.57 618.636 1703.13 585.337 1678.75 C 534.179 1641.3 455.161 1731.27 349.361 1695.69 C 331.721 1689.76 316.961 1681.56 284.911 1674.46 C 241.935 1664.96 203.225 1656.39 175.834 1674.86 C 138.89 1699.76 129.449 1769.2 154.872 1812.62 Z " fill="rgb(188,163,127)"/><path d=" M 737.762 1785.58 C 757.972 1842.51 807.943 1880.92 856.91 1892.51 C 919.885 1907.41 932.523 1866.42 1024.94 1861.96 C 1129.33 1856.92 1198.99 1905.08 1226.58 1871.12 C 1231.93 1864.54 1237.46 1852.69 1233.33 1845.55 C 1225.61 1832.18 1188.02 1842.17 1165.35 1845.55 C 1122.6 1851.93 1030.51 1851.3 1003.36 1807.94 C 979.642 1770.07 1009.74 1705.76 1013.19 1698.6 C 1028.94 1665.89 1046.99 1658.26 1045.26 1637.52 C 1042.48 1604.19 992.518 1583.35 979.599 1577.96 C 967.148 1572.77 869.443 1532.02 790.253 1597.81 C 734.588 1644.06 714.758 1720.79 737.762 1785.58 Z " fill="rgb(188,163,127)"/><path d=" M 2681.54 1426.63 C 2660.78 1434.61 2654.33 1453.92 2634.17 1496.1 C 2596.59 1574.74 2591.71 1564.72 2582.87 1593.36 C 2556.42 1679.14 2602.29 1762.35 2608.91 1773.97 C 2621.92 1796.8 2675.2 1890.32 2773.11 1893.97 C 2870.07 1897.58 2937.57 1810.34 2959.41 1748.71 C 2966.05 1729.99 2978.89 1693.78 2963.24 1657.91 C 2945.33 1616.88 2900.74 1600.59 2886.1 1595.24 C 2826.64 1573.52 2800.67 1602.22 2768.22 1576.78 C 2741.99 1556.23 2725 1510.89 2735.61 1477.48 C 2740.55 1461.94 2749.47 1455.23 2745.99 1444.88 C 2740.23 1427.8 2706.18 1417.16 2681.54 1426.63 Z " fill="rgb(188,163,127)"/><path d=" M 1878.98 1549.78 C 1841.52 1498.29 1731.37 1558.63 1667.26 1492.61 C 1652.17 1477.07 1639.48 1454.37 1610.43 1447.22 C 1606.86 1446.34 1574.77 1438.95 1552.64 1457.94 C 1536.42 1471.86 1534.02 1492.69 1531.17 1517.49 C 1528.08 1544.32 1532.86 1551.68 1531.56 1567.07 C 1527.84 1611.05 1482.66 1623.03 1449.37 1666.55 C 1420.75 1703.97 1399.19 1766.97 1418.77 1820.67 C 1444.11 1890.13 1535.71 1936.98 1582.06 1913.12 C 1635.98 1885.35 1588.07 1782.76 1653.42 1725.47 C 1717.52 1669.27 1809.03 1728.17 1862.35 1667.18 C 1889.96 1635.61 1900.64 1579.54 1878.98 1549.78 Z " fill="rgb(188,163,127)"/><path d=" M 1855 271.612 C 1855.97 290.121 1858.5 338.417 1892.12 357.051 C 1923.57 374.484 1963.29 355.461 1968.29 352.981 C 2010.25 332.174 2012.23 293.4 2043.43 291.481 C 2062.72 290.295 2079.89 304.01 2086.3 309.135 C 2104.53 323.69 2102.19 334.768 2115.84 347.869 C 2139.25 370.354 2186.2 376.212 2209.82 357.267 C 2230.52 340.663 2218.72 316.706 2240.14 296.525 C 2244.19 292.712 2259.5 279.539 2313.28 281.394 C 2396.1 284.25 2425.98 317.781 2451.39 300.012 C 2473.34 284.659 2471.41 245.391 2467.12 225.911 C 2456.5 177.726 2410.34 154.648 2396.5 147.731 C 2345.73 122.352 2315.18 139.266 2243.12 136.714 C 2107.72 131.919 2081.85 67.446 1992.99 92.249 C 1981.5 95.457 1929.77 111.096 1892.12 160.341 C 1883.08 172.153 1851.98 214.086 1855 271.612 Z " fill="rgb(188,163,127)"/><path d=" M 2637.03 1043.88 C 2601.25 1064.45 2586.99 1084.44 2552.97 1085.01 C 2524.37 1085.48 2512.8 1071.71 2490.05 1078.8 C 2465.22 1086.55 2446.21 1113.2 2441.9 1137.58 C 2432.39 1191.54 2493 1245.02 2539.71 1267.23 C 2601.87 1296.8 2661.01 1281.27 2699.32 1271.21 C 2711.76 1267.94 2803.26 1243.91 2806.06 1202.91 C 2806.93 1190.09 2799.23 1174.24 2791.97 1173.59 C 2785.2 1172.99 2782.06 1185.91 2767.93 1190.72 C 2760.9 1193.11 2754.81 1192.25 2749.54 1191.45 C 2731.76 1188.75 2690.36 1173.62 2687.68 1146.52 C 2684.92 1118.5 2724.51 1087.3 2757.32 1088.69 C 2791.95 1090.16 2805.6 1127.38 2832.97 1120.85 C 2848.08 1117.25 2859.6 1102.18 2862.05 1088.43 C 2867.07 1060.33 2835.43 1031.05 2808.95 1018.48 C 2740.36 985.944 2647.71 1037.74 2637.03 1043.88 Z " fill="rgb(188,163,127)"/><path d=" M 2014.45 1651.01 C 2002.83 1665.51 1980.88 1693.68 1978.45 1735.4 C 1975.84 1780.05 1997.17 1813.09 2004.33 1823.17 C 2051.08 1889.06 2158.25 1912.79 2218.13 1878.31 C 2241.09 1865.09 2250.04 1847.36 2277.76 1844.55 C 2312.05 1841.08 2326.47 1865.36 2352.03 1856.93 C 2377.36 1848.58 2396.36 1813.83 2389.16 1791.67 C 2384.28 1776.62 2370.54 1777.31 2341.9 1746.66 C 2328.19 1731.98 2321.31 1724.42 2320.52 1714.02 C 2319.07 1694.81 2337.44 1675.33 2355.41 1665.64 C 2391.25 1646.29 2414.25 1671.97 2467.93 1656.64 C 2485.82 1651.53 2510.02 1644.62 2517.44 1624 C 2524.16 1605.35 2515.94 1578.84 2496.06 1567.74 C 2479.82 1558.67 2462.87 1563.82 2461.18 1564.37 C 2443.69 1569.98 2439.02 1584.39 2428.55 1593.62 C 2405.08 1614.31 2362.94 1599.8 2330.65 1591.37 C 2313.14 1586.8 2219.92 1562.45 2139.36 1578.99 C 2121.02 1582.76 2058.07 1596.61 2014.45 1651.01 Z " fill="rgb(188,163,127)"/><path d=" M 2460.06 612.037 C 2440.12 645.277 2452.75 682.881 2461.43 708.714 C 2477.35 756.126 2521.82 828.281 2588.06 836.708 C 2638.86 843.17 2650.87 805.592 2701.07 816.283 C 2750.87 826.886 2760.44 868.396 2808.64 869.387 C 2829.36 869.813 2862.44 862.859 2871.28 842.154 C 2885.29 809.331 2821.07 782.534 2814.09 715.522 C 2808.19 658.839 2850.24 640.527 2837.24 594.336 C 2824.91 550.552 2771.67 512.092 2732.39 520.808 C 2682.67 531.84 2682.06 612.526 2637.08 617.484 C 2601.06 621.453 2587.98 571.216 2537.68 569.827 C 2507.63 568.996 2475.74 585.915 2460.06 612.037 Z " fill="rgb(188,163,127)"/></g></g></svg>